
        <svg xmlns="http://www.w3.org/2000/svg" xmlns:xlink="http://www.w3.org/1999/xlink" version="1.1" width="2416.122560049388" height="3149.6259351620947" viewBox="0 0 2416.122560049388 3149.6259351620947">
			
			<g transform="scale(7.4812967581047385) translate(10, 10)">
				<defs id="SvgjsDefs1374"/><g id="SvgjsG1375" featureKey="rootContainer" transform="matrix(1,0,0,1,0,0)" fill="#fff"><path xmlns="http://www.w3.org/2000/svg" fill-rule="evenodd" d="M5,65 L151.5,0 L298, 65 L151.5, 10 z M5,321 L151.5,401 L298,316 L151.5, 391 z"/></g><g id="SvgjsG1376" featureKey="7KWit6-0" transform="matrix(1.0936907529830933,0,0,1.0936907529830933,41.92676057669429,32.22692775442216)" fill="#fff"><line xmlns="http://www.w3.org/2000/svg" class="st0" x1="21" y1="93.2" x2="21" y2="93.2" style="fill: none; stroke: #226e40; stroke-width: 0; stroke-linecap: round; stroke-linejoin: round;"/><g xmlns="http://www.w3.org/2000/svg"><path d="M181.9,91.8c-0.1-0.3-0.2-0.5-0.4-0.8c-0.1-0.2-0.4-0.7-0.6-1c-0.3-0.3-0.6-0.5-0.9-0.8l-0.7-0.5l-2.6-1.7l-5.2-3.4   L161,76.8l-5.3-3.4l-2.7-1.7l-1.4-0.9l-1.4-0.8c-7.5-4-15.4-7.3-23.6-9.6c-8.2-2.3-16.7-3.8-25.4-3.9c-8.6-0.2-17.4,1.2-25.6,4.4   l-3.1,1.2l-2.9,1.5c-1.9,1-4,2.1-5.7,3.5c-3.6,2.6-6.8,5.7-9.7,9c-0.2,0.2-0.3,0.4-0.5,0.6c-0.3-0.5-0.8-0.8-1.3-0.8H39   c-7.4,0-14.7,0.8-22.1,2.4c-0.5,0.1-0.5,1.6,0,1.7c7.3,1.6,14.7,2.4,22.1,2.4h10.4c-1,1.4-1.9,2.9-2.8,4.4c-0.5,1-1.1,2-1.6,3   c-0.1,0-0.1,0-0.2,0h-9c-4.9,0-9.8,0.8-14.7,2.4c-0.2,0.1-0.2,0.4-0.2,0.8c0,0.4,0.1,0.8,0.2,0.8c4.9,1.6,9.8,2.4,14.7,2.4h6.6   c-0.3,1-0.5,2-0.8,3.1c-0.3,1.4-0.4,2.8-0.5,4.3c0,0.1,0,0.1,0,0.2h-5.9c-3.3,0-6.6,0.8-9.8,2.4c-0.2,0.1-0.2,1.6,0,1.7   c3.3,1.6,6.6,2.4,9.8,2.4h6c0.1,0,0.2-0.1,0.3-0.2c0.2,1.9,0.5,3.8,1,5.8c0.1,0.7,0.4,1.4,0.6,2.1c0.1,0.4,0.2,0.7,0.4,1.1l0.5,1.1   c0.6,1.4,1.9,3.1,3.5,4.2c0.2,0.2,0.5,0.3,0.7,0.4c-0.1,0.6-0.2,1.2-0.2,1.7c-0.2,2.6-0.1,5.5,0.9,8.3c0.7,1.7,1.7,3.4,3.1,4.8   c1.4,1.4,3.1,2.3,4.9,2.9c3.5,1.2,7,0.9,10.2,0.1c3.2-0.8,6.2-2.2,8.8-4c2.7-1.8,5-4.2,6.8-7c0.2-0.4,0.4-0.7,0.6-1.1   c1.1,0.1,2.3,0.2,3.4,0.2c10.4,0.6,20.7,0.2,30.9-0.3l11.1-0.7c0.1,1.7,0.4,3.4,1,5.1c0.7,1.7,1.7,3.4,3.1,4.8   c1.4,1.4,3.1,2.3,4.9,2.9c3.5,1.2,7,0.9,10.2,0.1c3.2-0.8,6.2-2.2,8.8-4c2.7-1.8,5-4.2,6.8-7c0.4-0.7,0.7-1.4,0.9-2.1   c0.1-0.7,0.2-1.4,0.1-1.9c-0.1-0.6-0.4-1.1-0.7-1.5c1.1-0.4,1.7-0.9,1.7-1.4c0-0.4-0.5-0.9-1.3-1.2c0.5-1.9,0.7-4.1,0.2-6.2   c-0.5-2.7-2.4-5.1-4.8-6.5c-2.4-1.4-5-2-7.6-2.2c-2.6-0.1-5.2,0.2-7.7,0.9c-4.9,1.4-9.8,4.2-12.9,9l-0.6,0.9l-0.5,1   c-0.3,0.6-0.6,1.3-0.8,2c-0.1,0.2-0.1,0.5-0.2,0.7l-12.1,0.8c-10.1,0.5-20.2,0.9-30.2,0.3c-1.3-0.1-2.6-0.1-3.9-0.2   c0.6-2.1,0.9-4.4,0.3-6.7c-0.5-2.7-2.4-5.1-4.8-6.5c-2.4-1.4-5-2-7.6-2.2c-2.6-0.1-5.2,0.2-7.7,0.9c-4.9,1.4-9.7,4.2-12.8,9   c-0.7-0.8-1.3-2.4-1.8-4.2c-0.6-2.2-0.9-4.7-1.2-7.1c-0.1-0.6-0.1-1.1-0.1-1.7c0-0.5-0.1-1.1,0-1.6c0.1-1.1,0.1-2.2,0.4-3.3   c0.7-3.6,2.2-7.3,4.1-10.7c1.9-3.4,4.2-6.7,6.8-9.7c2.6-3,5.5-5.8,8.6-8.1c1.5-1.2,3.1-2.1,4.9-3l2.6-1.4l2.7-1.1   c7.3-2.9,15.3-4.4,23.3-4.4c8,0,16.1,1.1,24,3.2c7.9,2,15.5,5,22.8,8.6l1.4,0.7l1.3,0.7l2.7,1.6l5.4,3.2l10.7,6.4l5.3,3.2l2.6,1.6   l0.6,0.4c0.1,0.1,0.2,0.1,0.3,0.2l0.2,0.3l0.3,0.6c1.5,3.3,1.8,7.5,1.5,11.4c-0.4,4-1.4,7.9-3.2,11.4c-1.8,3.5-4.7,6.5-8.4,7.6h0   c-1.9,0.5-3,0.8-3,1.2c0,0.3,1.1,0.9,3.4,0.4h0c2.2-0.5,4.2-1.6,5.8-3.1c1.7-1.4,3-3.2,4.2-5.1c2.2-3.8,3.5-7.9,4.1-12.2   C183.7,100.6,183.7,96.1,181.9,91.8z M77.2,114.3c1.7,0.8,3.2,2.1,3.9,3.9c0.7,1.8,0.8,4.1,0.5,6.3c-0.1,0.6,0.2,1,0.6,1.1   c-0.9-0.2-1.8,0-2.6,0.5c-0.4,0.2-0.8,0.6-1.2,0.9c-0.4,0.4-0.7,0.8-1,1.2c-2.5,4-7,7-11.6,8.1c-2.3,0.6-4.7,0.7-6.6,0   c-0.9-0.3-1.8-0.8-2.4-1.4c-0.6-0.6-1.1-1.4-1.5-2.3c-0.6-1.6-0.7-3.5-0.6-5.5c0.1-1.1,0.2-1.9,0.4-2.8c0.1-0.4,0.2-0.9,0.4-1.3   l0.3-0.6l0.3-0.6c1.8-3.2,5.3-5.8,9.1-7.2C69.2,113.3,73.6,112.8,77.2,114.3z M160.3,126.1c-0.4,0.2-0.8,0.6-1.2,0.9   c-0.4,0.4-0.7,0.8-1,1.2c-2.5,4-7,7-11.6,8.1c-2.3,0.6-4.7,0.7-6.6,0c-0.9-0.3-1.8-0.8-2.4-1.4c-0.6-0.6-1.1-1.4-1.5-2.3   c-0.6-1.6-0.7-3.5-0.6-5.5c0.1-1.1,0.2-1.9,0.4-2.8c0.1-0.4,0.2-0.9,0.4-1.3l0.3-0.6l0.3-0.6c1.8-3.2,5.3-5.8,9.1-7.2   c3.8-1.4,8.3-1.9,11.9-0.5c1.7,0.8,3.2,2.1,3.9,3.9c0.7,1.8,0.8,4.1,0.5,6.3c-0.1,0.6,0.2,1,0.6,1.1   C162.1,125.3,161.1,125.6,160.3,126.1z"/><path d="M139.1,86.7c-10.5-1.2-21-2-31.5-2.3l0.5-1.7c0.8-2.7,0.7-5.7-0.1-8.8c-0.1-0.2-1.5-0.6-1.6-0.4h0   c-2.3,2.3-3.9,4.8-4.6,7.5l-0.9,3.4c-1.4,0-2.8-0.1-4.2-0.1h-26c-2.1,0-3.7,1.5-3.7,3.3c0,1.8,1.7,3.3,3.7,3.3h26   c14.2,0,28.4-0.8,42.5-2.4C140,88.2,140,86.8,139.1,86.7z"/></g></g><g id="SvgjsG1377" featureKey="ewgXDI-0" transform="matrix(2.516655921936035,0,0,2.516655921936035,-1.7616586460875208,220.75572562146297)" fill="#fff"><path d="M8.5 9.6 l3.16 0 l0 10.4 c0 3.16 -3.2 4.12 -5.52 4.12 c-1.1 0 -2.1 -0.18 -2.74 -0.52 l0 -2.58 c0.64 0.34 1.6 0.48 2.74 0.48 c1.86 0 2.36 -0.96 2.36 -1.5 l0 -1.04 c-0.14 0.36 -1.08 1.24 -2.68 1.24 c-2.38 0 -5.12 -1.7 -5.12 -5.42 c0 -3.58 2.74 -5.36 5.12 -5.36 c1.6 0 2.54 0.92 2.68 1.14 l0 -0.96 z M6.28 17.42 c1.3 0 2.36 -0.9 2.36 -2.64 c0 -1.68 -1.06 -2.58 -2.36 -2.58 c-1.36 0 -2.52 0.92 -2.52 2.58 c0 1.72 1.16 2.64 2.52 2.64 z M18.86 9.42 c2.36 0 5.66 1.78 5 6.48 l-7.26 0 c0.36 1.08 1.3 1.64 2.56 1.64 c1.28 0 1.68 -0.28 2.4 -0.58 l1.74 1.68 c-0.92 0.9 -2.16 1.56 -4.26 1.56 c-2.58 0 -5.66 -1.78 -5.66 -5.36 c0 -3.64 3.12 -5.42 5.48 -5.42 z M18.86 12.120000000000001 c-0.9 0 -1.82 0.52 -2.22 1.56 l4.42 0 c-0.32 -1.04 -1.3 -1.56 -2.2 -1.56 z M30.72 17.36 c0.56 0 0.96 -0.08 1.4 -0.2 l0 2.62 c-0.44 0.2 -1.16 0.34 -2.22 0.34 c-1.74 0 -3.2 -0.58 -3.2 -3.78 l0 -4.14 l-1.46 0 l0 -2.6 l1.46 0 l0 -2.44 l3.16 0 l0 2.44 l2.22 0 l0 2.6 l-2.22 0 l0 4.14 c0 0.46 0.12 1.02 0.86 1.02 z M47.7 9.44 c2.22 0 4.18 1.44 4.18 4.96 l0 5.6 l-3.16 0 l0 -5.5 c0 -1.32 -0.56 -2.32 -2.02 -2.32 c-1.22 0 -2.04 1.08 -2.28 2.04 l0 5.78 l-3.16 0 l0 -5.5 c0 -1.32 -0.82 -2.32 -2.02 -2.32 c-1.3 0 -2.08 0.88 -2.28 2.04 l0 5.78 l-3.16 0 l0 -10.4 l3.16 0 l0 1.9 c0.04 -0.48 1.06 -2.06 3.1 -2.06 c1.5 0 2.94 0.8 3.8 2.26 c0.24 -0.56 1.44 -2.26 3.84 -2.26 z M58.96 9.42 c2.36 0 5.66 1.78 5 6.48 l-7.26 0 c0.36 1.08 1.3 1.64 2.56 1.64 c1.28 0 1.68 -0.28 2.4 -0.58 l1.74 1.68 c-0.92 0.9 -2.16 1.56 -4.26 1.56 c-2.58 0 -5.66 -1.78 -5.66 -5.36 c0 -3.64 3.12 -5.42 5.48 -5.42 z M58.96 12.120000000000001 c-0.9 0 -1.82 0.52 -2.22 1.56 l4.42 0 c-0.32 -1.04 -1.3 -1.56 -2.2 -1.56 z M73.24000000000001 9.6 l3.16 0 l0 10.4 l-3.16 0 l0 -1.04 c-0.14 0.36 -1.08 1.24 -2.68 1.24 c-2.38 0 -5.12 -1.7 -5.12 -5.42 c0 -3.58 2.74 -5.36 5.12 -5.36 c1.6 0 2.54 0.92 2.68 1.14 l0 -0.96 z M71.02000000000001 17.42 c1.3 0 2.36 -0.9 2.36 -2.64 c0 -1.68 -1.06 -2.58 -2.36 -2.58 c-1.36 0 -2.52 0.92 -2.52 2.58 c0 1.72 1.16 2.64 2.52 2.64 z M81.60000000000002 5.859999999999999 l0 14.14 l-3.16 0 l0 -14.14 l3.16 0 z M88.50000000000001 8.26 c-0.9 0 -0.88 0.82 -0.88 1.02 l0 0.32 l2.16 0 l0 2.6 l-2.16 0 l0 7.8 l-3.18 0 l0 -7.8 l-1.42 0 l0 -2.6 l1.42 0 l0 -0.32 c0 -3.22 2.42 -3.62 3.68 -3.62 c1 0 1.98 0.22 2.72 0.7 l-1.06 2.18 c-0.58 -0.22 -0.8 -0.28 -1.28 -0.28 z M99.86000000000001 9.6 l3.16 0 l0 10.4 l-3.16 0 l0 -1.04 c-0.14 0.36 -1.08 1.24 -2.68 1.24 c-2.38 0 -5.12 -1.7 -5.12 -5.42 c0 -3.58 2.74 -5.36 5.12 -5.36 c1.6 0 2.54 0.92 2.68 1.14 l0 -0.96 z M97.64000000000001 17.42 c1.3 0 2.36 -0.9 2.36 -2.64 c0 -1.68 -1.06 -2.58 -2.36 -2.58 c-1.36 0 -2.52 0.92 -2.52 2.58 c0 1.72 1.16 2.64 2.52 2.64 z M110.00000000000001 12.879999999999999 c-0.28 -0.72 -0.7 -0.96 -1.16 -0.96 c-0.42 0 -0.84 0.24 -0.84 0.64 c0 0.38 0.24 0.6 0.7 0.76 l1.32 0.46 c1.48 0.54 2.98 1.08 2.98 3.16 c0 2.1 -2.1 3.3 -4.26 3.3 c-1.94 0 -3.76 -1.14 -4.2 -2.96 l2.48 -0.78 c0.26 0.58 0.72 1.24 1.72 1.24 c0.68 0 1.12 -0.44 1.12 -0.84 c0 -0.2 -0.16 -0.46 -0.66 -0.66 l-1.22 -0.44 c-2.08 -0.76 -3.06 -1.82 -3.06 -3.3 c0 -1.94 1.8 -3.08 3.78 -3.08 c2.02 0 3.36 1.1 3.96 2.76 z M119.68000000000002 17.36 c0.56 0 0.96 -0.08 1.4 -0.2 l0 2.62 c-0.44 0.2 -1.16 0.34 -2.22 0.34 c-1.74 0 -3.2 -0.58 -3.2 -3.78 l0 -4.14 l-1.46 0 l0 -2.6 l1.46 0 l0 -2.44 l3.16 0 l0 2.44 l2.22 0 l0 2.6 l-2.22 0 l0 4.14 c0 0.46 0.12 1.02 0.86 1.02 z"/></g>
			</g>
		</svg>
	